<?xml version="1.0" encoding="UTF-8" standalone="no"?>
<!DOCTYPE svg PUBLIC "-//W3C//DTD SVG 1.1//EN" "http://www.w3.org/Graphics/SVG/1.1/DTD/svg11.dtd">
<svg width="100%" height="100%" viewBox="0 0 1106 782" version="1.1" xmlns="http://www.w3.org/2000/svg" xmlns:xlink="http://www.w3.org/1999/xlink" xml:space="preserve" xmlns:serif="http://www.serif.com/" style="fill-rule:evenodd;clip-rule:evenodd;stroke-linejoin:round;stroke-miterlimit:2;">
    <g transform="matrix(1,0,0,1,-1378.280227,-236.434866)">
        <g transform="matrix(1,0,0,1,-3912,0)">
            <g id="logo" transform="matrix(1.930438,0,0,1.930438,4642.740284,-300.867568)">
                <g transform="matrix(1.224609,0,0,1.224609,0,0)">
                    <path d="M419.277,326.416C417.391,326.065 411.746,325.084 411.746,325.084L399.487,323.435C399.487,323.435 395.28,323.005 392.888,322.761C392.5,322.722 392.153,322.505 391.948,322.174C391.742,321.843 391.701,321.436 391.838,321.071C392.994,317.955 395.581,311.008 396.279,309.332C396.617,308.522 404.106,289.699 420.226,271.264C434.057,255.447 448.18,247.054 448.652,246.744C453.172,243.769 466.081,236.537 480.473,232.407C483.65,231.496 491.282,228.934 507.504,227.549C514.438,226.956 532.353,226.961 549.408,231.802C558.714,234.443 558.661,234.56 567.608,238.238C570.465,239.413 580.3,244.153 590.407,251.629C595.216,255.187 606.317,263.428 617.44,278.545C617.807,279.044 629.31,293.828 635.211,311.593C637.062,317.166 638.018,317.911 640.664,333.471C640.72,333.797 640.743,334.127 640.798,334.453C641.333,337.622 642.302,337.099 645.491,337.561C654.046,338.799 662.229,340.371 674.557,345.37C676.834,346.294 677.888,347.189 684.552,350.395C688.349,352.221 700.211,360.578 705.44,365.563C718.347,377.865 720.912,383.221 725.736,390.35C726.615,391.65 730.631,399.158 732.135,402.659C736.108,411.91 737.661,418.227 738.004,419.622C739.751,426.727 740.868,431.575 741.422,442.504C741.694,447.864 741.578,460.618 738.81,471.585C737.538,476.627 736.865,480.862 731.542,493.519C731.292,494.113 731.29,494.108 727.9,500.7C724.654,507.011 720.243,512.883 717.97,515.859C717.347,516.675 715.201,519.485 709.492,525.493C704.058,531.212 695.582,537.27 694.293,538.192C676.646,550.807 655.589,556.46 641.479,557.196C633.951,557.588 633.953,557.448 508.5,557.532C467.583,557.559 466.111,557.398 462.449,556.995C453.622,556.026 439.79,552.001 432.352,547.758C427.845,545.188 427.272,545.511 419.453,539.558C412.601,534.341 407.701,528.354 406.808,527.262C400.807,519.93 398.255,515.055 395.209,508.633C394.807,507.784 393.866,505.801 391.267,497.574C388.155,487.726 388.732,478.078 388.728,460.5C388.721,416.595 388.188,409.732 388.188,409.732C388.188,409.732 377.129,409.716 376.414,409.712C362.149,409.633 363.09,410.698 361.647,408.407C360.972,407.334 360.982,405.209 360.995,401.504C361.012,396.497 361.078,396.515 361.073,391.503C361.068,387.282 360.478,383.907 366.502,383.86C379.605,383.756 388.798,383.799 388.798,383.799C388.798,383.799 388.68,371.635 388.742,360.504C388.81,348.501 388.281,346.663 390.599,344.617C392.59,342.859 393.824,343.14 409.496,343.125C413.383,343.122 419.7,342.175 419.878,349.494C420.072,357.448 420.235,383.66 420.235,383.66C420.235,383.66 425.888,383.75 426.49,383.782C428.117,383.87 464.871,383.766 465.446,383.892C467.055,384.243 467.381,384.976 467.409,386.502C467.44,388.18 467.751,404.936 467.398,407.486C466.964,410.625 465.285,410.052 450.5,410.05C424.594,410.045 420.83,410.021 420.83,410.021C420.83,410.021 419.905,414.16 419.899,428.501C419.879,476.376 419.744,476.373 420.068,480.522C420.107,481.024 419.766,499.538 437.249,513.815C441.584,517.355 443.023,518.203 449.623,521.238C460.048,526.032 472.517,525.232 480.501,525.234C576.117,525.261 634.646,525.232 635.497,525.218C638.361,525.167 648.787,524.976 663.517,518.541C671.939,514.861 679.972,508.274 681.276,507.205C687.839,501.823 693.61,494.582 696.795,489.679C712.045,466.198 709.198,442.948 709.125,441.528C709.041,439.884 708.677,432.806 704.744,421.42C703.993,419.248 700.449,411.042 698.229,407.67C697.903,407.174 686.721,386.672 663.695,376.052C656.826,372.883 654.968,372.007 642.495,369.525C633.82,367.798 618.294,370.09 614.294,367.917C606.741,363.812 611.282,356.812 609.095,341.562C608.486,337.308 607.988,330.761 602.667,317.436C600.147,311.126 594.725,301.963 592.238,298.69C587.3,292.189 585.536,290.174 581.694,286.307C581.173,285.782 579.919,284.521 574.798,280.147C574.565,279.948 567.615,274.177 559.716,270.07C559.636,270.028 553.5,266.175 540.565,262.305C529.766,259.075 515.524,258.519 509.464,259.092C500.784,259.912 496.609,259.741 481.561,264.674C478.307,265.741 469.097,270.013 466.569,271.605C464.782,272.73 450.467,280.643 439.236,295.306C436.716,298.597 431.688,306.017 429.6,310.549C427.527,315.047 426.982,314.814 424.103,323.359C423.824,324.186 423.609,325.222 423.432,326.009C423.28,326.673 422.626,327.094 421.959,326.96C420.941,326.751 419.55,326.467 419.277,326.416Z" style="fill:white;"/>
                </g>
                <g transform="matrix(1.224609,0,0,1.224609,0,0)">
                    <path d="M355.524,557.144C354.787,557.076 334.874,556.006 315.555,543.417C301.474,534.241 294.421,524.27 293.189,522.737C285.09,512.659 281.262,502.318 280.796,501.365C278.274,496.21 270.371,474.716 275.749,449.546C276.155,447.648 278.069,438.688 283.827,426.662C285.334,423.517 291.409,413.559 297.248,407.269C304.374,399.593 307.62,397.382 308.573,396.59C318.737,388.137 334.138,382.571 336.617,381.925C337.143,381.788 340.501,380.913 343.131,383.84C344.564,385.436 344.596,385.652 344.635,400.499C344.663,411.011 344.759,411.672 342.608,413.619C340.125,415.866 328.252,419.047 318.011,433.143C314.544,437.916 314.678,437.995 312.051,443.284C311.236,444.925 307.077,453.298 306.456,465.498C305.51,484.08 315.317,503.275 329.39,513.656C333.774,516.889 336.711,518.379 337.386,518.721C351.496,525.877 360.264,525.371 378.497,525.246C386.558,525.191 387.312,524.713 389.615,528.429C395.525,537.964 406.322,548.78 414.255,553.865C417.781,556.125 418.325,555.625 418.464,556.513C418.664,557.792 416.715,557.709 416.534,557.701C398.668,556.945 374.077,558.072 355.524,557.144Z" style="fill:white;"/>
                </g>
                <g transform="matrix(1.224609,0,0,1.224609,0,0)">
                    <path d="M331.537,330.051C331.086,329.972 320.076,328.907 315.711,317.426C314.409,314.003 314.627,308.766 315.752,305.584C318.631,297.439 324.319,295.08 326.385,294.219C339.448,288.774 348.283,299.051 349.628,301.421C356.776,314.02 348.8,324.731 342.618,327.739C336.843,330.548 333.849,330.125 331.537,330.051Z" style="fill:white;"/>
                </g>
                <g transform="matrix(1.224609,0,0,1.224609,0,0)">
                    <path d="M347.2,351.604C346.823,349.563 346.539,349.578 346.809,347.533C347.506,342.265 349.978,340.473 352.228,339.07C359.223,334.713 367.323,339.747 368.323,346.53C370.196,359.222 352.952,365.03 347.2,351.604Z" style="fill:white;"/>
                </g>
            </g>
        </g>
    </g>
</svg>
